<svg width="92" height="92" viewBox="0 0 92 92" fill="none" xmlns="http://www.w3.org/2000/svg">
<path d="M7.66667 30.6666V46.0038H11.5V69H7.66667V80.5H69L80.5 80.5038L84.3333 80.5V69H80.5V46.0038H84.3333V30.6666L46 7.66663L7.66667 30.6666ZM23 69V46.0038H30.6667V69H23ZM42.1667 69V46.0038H49.8333V69H42.1667ZM69 69H61.3333V46.0038H69V69ZM53.6667 30.6666C53.6664 31.6737 53.4678 32.6708 53.0822 33.6011C52.6966 34.5314 52.1315 35.3767 51.4192 36.0886C50.707 36.8005 49.8614 37.3651 48.931 37.7503C48.0005 38.1354 47.0032 38.3335 45.9962 38.3333C44.9891 38.333 43.992 38.1344 43.0617 37.7488C42.1314 37.3632 41.2861 36.7981 40.5742 36.0859C39.8623 35.3736 39.2977 34.5281 38.9125 33.5976C38.5274 32.6671 38.3293 31.6698 38.3295 30.6628C38.33 28.629 39.1384 26.6786 40.5769 25.2408C42.0154 23.8031 43.9662 22.9956 46 22.9961C48.0338 22.9966 49.9842 23.8051 51.422 25.2436C52.8597 26.6821 53.6672 28.6328 53.6667 30.6666Z" fill="#189132"/>
</svg>
