<svg width="92" height="92" viewBox="0 0 92 92" fill="none" xmlns="http://www.w3.org/2000/svg">
<path d="M73.7481 55.6066L59.3409 48.7342L53.2487 45.8279C53.4014 45.7313 53.5467 45.6218 53.6967 45.5197H61.6961C62.2908 45.5192 62.861 45.2828 63.2816 44.8622C63.7021 44.4417 63.9386 43.8715 63.9391 43.2768V37.375H63.9188C63.6741 29.1502 60.8175 21.9144 56.5275 17.3769C54.2653 14.8258 51.3332 13.0925 48.0534 12.5745C47.9074 12.55 47.7609 12.5282 47.6137 12.5092C47.445 12.4871 47.2754 12.4684 47.1049 12.4531C46.7372 12.4191 46.3683 12.401 45.9991 12.3988H45.9972C45.6311 12.3988 45.2695 12.42 44.9089 12.4512C44.7359 12.4672 44.5642 12.4862 44.3937 12.5083C44.2501 12.5267 44.1075 12.5475 43.9659 12.5708C40.7127 13.0796 37.8009 14.7862 35.5451 17.3006C31.2137 21.8334 28.3259 29.1032 28.0793 37.3759H28.06V43.2777C28.0605 43.8724 28.2969 44.4426 28.7175 44.8632C29.138 45.2837 29.7082 45.5202 30.3029 45.5206H38.3244C38.5434 45.6697 38.7614 45.8215 38.9877 45.9576L33.1531 48.6744L18.2785 55.602C16.9859 56.2074 16.1377 57.6646 16.1377 59.2921V75.6359C16.1377 77.8264 17.664 79.6021 19.5491 79.6021H72.4527C74.3378 79.6021 75.8641 77.8264 75.8641 75.6359V59.2903C75.8632 57.6683 75.0278 56.2248 73.7481 55.6066Z" fill="#189132"/>
</svg>
