<svg width="92" height="92" viewBox="0 0 92 92" fill="none" xmlns="http://www.w3.org/2000/svg">
<path d="M5.75 23C5.75 21.475 6.3558 20.0125 7.43414 18.9341C8.51247 17.8558 9.97501 17.25 11.5 17.25C13.025 17.25 14.4875 17.8558 15.5659 18.9341C16.6442 20.0125 17.25 21.475 17.25 23V69C17.25 70.525 16.6442 71.9875 15.5659 73.0659C14.4875 74.1442 13.025 74.75 11.5 74.75C9.97501 74.75 8.51247 74.1442 7.43414 73.0659C6.3558 71.9875 5.75 70.525 5.75 69V23ZM74.75 23C74.75 21.475 75.3558 20.0125 76.4341 18.9341C77.5125 17.8558 78.975 17.25 80.5 17.25C82.025 17.25 83.4875 17.8558 84.5659 18.9341C85.6442 20.0125 86.25 21.475 86.25 23V69C86.25 70.525 85.6442 71.9875 84.5659 73.0659C83.4875 74.1442 82.025 74.75 80.5 74.75C78.975 74.75 77.5125 74.1442 76.4341 73.0659C75.3558 71.9875 74.75 70.525 74.75 69V23ZM69 25.875H23V66.125H69V25.875Z" fill="#189132"/>
</svg>
