<svg width="92" height="92" viewBox="0 0 92 92" fill="none" xmlns="http://www.w3.org/2000/svg">
<g clip-path="url(#clip0_91_8)">
<path d="M41.4 53.9581C39.6461 52.9454 38.2753 51.3824 37.5003 49.5113C36.7253 47.6402 36.5893 45.5657 37.1135 43.6095C37.6377 41.6533 38.7927 39.9247 40.3994 38.6918C42.0061 37.4589 43.9748 36.7906 46 36.7906C48.0252 36.7906 49.9939 37.4589 51.6006 38.6918C53.2073 39.9247 54.3624 41.6533 54.8865 43.6095C55.4107 45.5657 55.2747 47.6402 54.4997 49.5113C53.7247 51.3824 52.3539 52.9454 50.6 53.9581V92.0001H41.4V53.9581ZM65.504 65.5041L59.018 59.0181C61.617 56.4535 63.392 53.172 64.1161 49.5932C64.8401 46.0145 64.4803 42.3011 63.0826 38.9279C61.6849 35.5547 59.3129 32.6751 56.2699 30.6572C53.2269 28.6393 49.6512 27.5749 46 27.6001C42.3587 27.5972 38.7985 28.6748 35.7699 30.6964C32.7414 32.718 30.3808 35.5928 28.987 38.9567C27.5931 42.3207 27.2287 46.0225 27.9399 49.5937C28.651 53.1649 30.4058 56.4447 32.982 59.0181L26.496 65.5041C22.6391 61.6429 20.0135 56.725 18.9511 51.372C17.8886 46.0189 18.437 40.4711 20.5269 35.4296C22.6167 30.3882 26.1543 26.0794 30.6925 23.0481C35.2306 20.0167 40.5655 18.3988 46.023 18.3988C51.4805 18.3988 56.8154 20.0167 61.3536 23.0481C65.8917 26.0794 69.4293 30.3882 71.5191 35.4296C73.609 40.4711 74.1574 46.0189 73.0949 51.372C72.0325 56.725 69.4069 61.6429 65.55 65.5041H65.504ZM78.522 78.5221L72.036 72.0361C77.185 66.8904 80.6922 60.3334 82.1141 53.1942C83.536 46.055 82.8087 38.6545 80.0241 31.9288C77.2395 25.2031 72.5228 19.4543 66.4705 15.4096C60.4182 11.3649 53.3024 9.206 46.023 9.206C38.7436 9.206 31.6278 11.3649 25.5755 15.4096C19.5233 19.4543 14.8065 25.2031 12.0219 31.9288C9.23734 38.6545 8.50998 46.055 9.93187 53.1942C11.3538 60.3334 14.861 66.8904 20.01 72.0361L13.478 78.5221C7.0434 72.0894 2.66095 63.893 0.884899 54.9695C-0.891147 46.046 0.0189951 36.7962 3.50022 28.39C6.98144 19.9838 12.8774 12.7988 20.4423 7.7436C28.0073 2.68844 36.9015 -0.00976563 46 -0.00976562C55.0985 -0.00976563 63.9927 2.68844 71.5577 7.7436C79.1226 12.7988 85.0186 19.9838 88.4998 28.39C91.981 36.7962 92.8912 46.046 91.1151 54.9695C89.3391 63.893 84.9566 72.0894 78.522 78.5221Z" fill="#189132"/>
</g>
<defs>
<clipPath id="clip0_91_8">
<rect width="92" height="92" fill="white"/>
</clipPath>
</defs>
</svg>
