<svg width="175" height="64" viewBox="0 0 175 64" fill="none" xmlns="http://www.w3.org/2000/svg">
<path d="M81.1215 13.0098C76.0919 13.0098 71.9478 14.5523 68.6918 17.6399C65.4334 20.7251 63.8066 24.6694 63.8066 29.4704C63.8066 34.2714 65.4358 38.1676 68.6918 41.272C71.9478 44.3764 76.0919 45.9286 81.1215 45.9286C86.1511 45.9286 90.2471 44.3764 93.5223 41.272C96.7976 38.1676 98.4365 34.2329 98.4365 29.4704C98.4365 24.7079 96.8072 20.7756 93.5512 17.6688C90.2928 14.5644 86.1511 13.0122 81.1215 13.0122V13.0098ZM85.8937 34.4423C84.6543 35.737 83.0636 36.3843 81.1215 36.3843C79.1794 36.3843 77.5791 35.737 76.3205 34.4423C75.0643 33.1476 74.4338 31.4895 74.4338 29.4704C74.4338 28.1372 74.7202 26.9459 75.2905 25.8991C75.8633 24.8523 76.6526 24.0316 77.6633 23.442C78.6717 22.8524 79.8244 22.5564 81.1215 22.5564C83.0636 22.5564 84.6543 23.2038 85.8937 24.4985C87.1306 25.7932 87.7515 27.4513 87.7515 29.4704C87.7515 31.4895 87.1306 33.1476 85.8937 34.4423Z" fill="#231F20"/>
<path d="M113.983 2.89514H103.353V44.901H113.983V2.89514Z" fill="#231F20"/>
<path d="M134.756 34.642C134.128 34.0139 133.812 33.1476 133.812 32.0406V22.2099H141.299V14.0374H133.526V5.0105H131.355L117.525 19.7553V22.2123H123.183V33.8719C123.183 37.3012 124.155 39.9965 126.097 41.9579C128.039 43.9216 130.727 44.901 134.156 44.901H141.472V35.5854H137.357C136.25 35.5854 135.386 35.2701 134.758 34.642H134.756Z" fill="#231F20"/>
<path d="M62.3795 42.2225L31.9731 41.2816C30.9479 41.2503 30.2596 40.2179 30.623 39.2577L33.0801 32.7769C33.6649 31.2392 31.6939 30.0239 30.5821 31.2368L5.68661 58.4064C4.67106 59.5158 5.74677 61.2629 7.1955 60.8538L62.7429 45.1513C64.3865 44.6868 64.0905 42.2731 62.3819 42.2201L62.3795 42.2225Z" fill="#231F20"/>
<path d="M16.1718 27.1866L36.969 27.8291C37.6693 27.8508 38.141 28.5559 37.8931 29.2129L36.211 33.6457C35.8115 34.6974 37.1591 35.5276 37.9196 34.6974L54.9482 16.1166C55.6436 15.3585 54.9072 14.1625 53.9158 14.444L15.9264 25.182C14.8025 25.4996 15.0047 27.1505 16.1718 27.1866Z" fill="#231F20"/>
<path d="M157.483 33.742C157.264 33.6433 157.021 33.5928 156.756 33.5928C156.349 33.5928 156.008 33.7059 155.731 33.9273C155.454 34.1511 155.264 34.4615 155.165 34.8586H158.409C158.328 34.5843 158.207 34.3556 158.048 34.1679C157.892 33.9802 157.702 33.8382 157.483 33.7396V33.742Z" fill="#231F20"/>
<path d="M160.202 25.7306C154.951 25.7306 150.692 29.9877 150.692 35.2412C150.692 40.4946 154.949 44.7518 160.202 44.7518C165.456 44.7518 169.713 40.4946 169.713 35.2412C169.713 29.9877 165.456 25.7306 160.202 25.7306ZM160.188 36.1051H155.117C155.192 36.5599 155.372 36.9113 155.659 37.1544C155.945 37.3998 156.311 37.5202 156.759 37.5202C157.064 37.5202 157.343 37.4528 157.591 37.3156C157.839 37.1784 158.034 36.9907 158.176 36.7501H160.089C159.841 37.4792 159.418 38.0592 158.821 38.49C158.224 38.9207 157.536 39.1373 156.759 39.1373C155.765 39.1373 154.937 38.798 154.273 38.117C153.611 37.4383 153.279 36.596 153.279 35.5949C153.279 35.1979 153.334 34.8152 153.447 34.4518C153.56 34.0884 153.722 33.7612 153.931 33.47C154.14 33.1788 154.388 32.9285 154.67 32.7191C154.951 32.5074 155.271 32.3437 155.627 32.2282C155.984 32.1127 156.361 32.0549 156.759 32.0549C157.43 32.0549 158.032 32.2114 158.566 32.5266C159.1 32.8419 159.512 33.2678 159.796 33.8069C160.082 34.3459 160.224 34.9331 160.224 35.5709C160.224 35.7441 160.212 35.9222 160.188 36.1051ZM164.897 38.9496H163.22L160.498 32.2378H162.423L164.077 36.7356L165.68 32.2378H167.569L164.897 38.9496Z" fill="#231F20"/>
</svg>
